<svg width="851" height="287" viewBox="0 0 851 287" fill="none" xmlns="http://www.w3.org/2000/svg">
<path d="M141 37H286C298.703 37 309 47.2975 309 60V228H141C128.297 228 118 217.703 118 205V60C118 47.2975 128.297 37 141 37Z" fill="#D9F3F4" stroke="#2B8389" stroke-width="30"/>
<path d="M15 60C15 47.2975 25.2975 37 38 37H206V205C206 217.703 195.703 228 183 228H38C25.2975 228 15 217.703 15 205V60Z" fill="#D9F3F4" stroke="#2B8389" stroke-width="30"/>
<path d="M206 60V210C206 219.389 198.389 227 189 227H32C22.6112 227 15 219.389 15 210V60" stroke="#174649" stroke-width="30"/>
<line x1="309" y1="61" x2="309" y2="243" stroke="#174649" stroke-width="30"/>
<path d="M389.36 151.88C389.36 130.6 392.24 113.4 398 100.28C403.92 87.16 412.56 77.64 423.92 71.72C435.44 65.64 449.68 62.6 466.64 62.6C471.6 62.6 476.16 62.76 480.32 63.08C484.48 63.24 488.48 63.64 492.32 64.28C496.16 64.76 499.84 65.4 503.36 66.2C507.04 67 510.72 67.96 514.4 69.08L509.12 90.68C504.32 89.4 499.76 88.44 495.44 87.8C491.12 87 486.8 86.44 482.48 86.12C478.16 85.8 473.68 85.64 469.04 85.64C460.24 85.64 452.56 86.76 446 89C439.44 91.24 434 94.92 429.68 100.04C425.36 105.16 422.08 111.96 419.84 120.44C417.76 128.92 416.72 139.32 416.72 151.64C416.72 163 417.76 172.6 419.84 180.44C421.92 188.12 425.04 194.36 429.2 199.16C433.52 203.8 438.8 207.24 445.04 209.48C451.44 211.56 458.88 212.6 467.36 212.6C474.88 212.6 482.72 212.12 490.88 211.16C499.04 210.04 506.48 208.52 513.2 206.6L518 227.96C514.32 229.08 510.4 230.12 506.24 231.08C502.24 232.04 497.92 232.84 493.28 233.48C488.8 234.12 484.08 234.6 479.12 234.92C474.16 235.24 468.88 235.4 463.28 235.4C451.28 235.4 440.64 233.96 431.36 231.08C422.24 228.04 414.56 223.24 408.32 216.68C402.08 210.12 397.36 201.56 394.16 191C390.96 180.28 389.36 167.24 389.36 151.88ZM540.449 233V65H568.049L617.729 149L667.409 65H694.049V233H669.329V105.56L623.249 182.36H610.529L564.929 106.04V233H540.449ZM835.766 70.28L830.246 91.4C827.366 90.28 824.006 89.32 820.166 88.52C816.326 87.56 812.326 86.76 808.166 86.12C804.006 85.48 799.846 85 795.686 84.68C791.526 84.36 787.606 84.2 783.926 84.2C772.566 84.2 763.526 86.2 756.806 90.2C750.086 94.2 746.726 99.88 746.726 107.24C746.726 110.92 747.526 114.2 749.126 117.08C750.886 119.8 753.526 122.36 757.046 124.76C760.726 127.16 765.526 129.56 771.446 131.96C777.366 134.2 784.486 136.6 792.806 139.16C801.766 141.88 809.446 144.84 815.846 148.04C822.246 151.24 827.526 154.76 831.686 158.6C835.846 162.28 838.886 166.6 840.806 171.56C842.726 176.36 843.686 181.96 843.686 188.36C843.686 198.44 841.046 207 835.766 214.04C830.486 220.92 822.806 226.2 812.726 229.88C802.646 233.56 790.246 235.4 775.526 235.4C770.726 235.4 765.606 235.16 760.166 234.68C754.726 234.2 749.206 233.56 743.606 232.76C738.166 231.8 732.886 230.68 727.766 229.4C722.806 228.12 718.326 226.76 714.326 225.32L720.086 204.44C723.926 205.88 728.246 207.16 733.046 208.28C737.846 209.4 742.806 210.44 747.926 211.4C753.046 212.2 758.086 212.84 763.046 213.32C768.006 213.8 772.646 214.04 776.966 214.04C785.606 214.04 792.806 213.16 798.566 211.4C804.326 209.48 808.726 206.76 811.766 203.24C814.806 199.72 816.326 195.48 816.326 190.52C816.326 186.84 815.286 183.56 813.206 180.68C811.126 177.8 808.006 175.24 803.846 173C799.846 170.6 794.646 168.2 788.246 165.8C781.846 163.4 774.326 160.76 765.686 157.88C757.526 155.16 750.486 152.2 744.566 149C738.806 145.8 734.006 142.28 730.166 138.44C726.486 134.6 723.686 130.28 721.766 125.48C720.006 120.68 719.126 115.16 719.126 108.92C719.126 102.2 720.486 96.04 723.206 90.44C725.926 84.68 729.926 79.72 735.206 75.56C740.646 71.4 747.446 68.2 755.606 65.96C763.766 63.72 773.206 62.6 783.926 62.6C790.166 62.6 796.486 63 802.886 63.8C809.286 64.44 815.366 65.32 821.126 66.44C827.046 67.56 831.926 68.84 835.766 70.28Z" fill="#174649"/>
</svg>
